<svg xmlns="http://www.w3.org/2000/svg" viewBox="0 0 1006.41 884.56"><g style="isolation:isolate"><g id="Layer_1" data-name="Layer 1"><rect x="61.17" y="0.5" width="884.06" height="884.06" rx="70.91" fill="#1e1236"/><path d="M132.85.5H873.56a71.67,71.67,0,0,1,71.67,71.67v115.6a0,0,0,0,1,0,0H61.17a0,0,0,0,1,0,0V72.17A71.67,71.67,0,0,1,132.85.5Z" fill="#463075" stroke="#463075" stroke-miterlimit="10"/><g opacity="0.8" style="mix-blend-mode:multiply"><text transform="translate(110.93 151.98)" font-size="140" font-family="BarlowCondensed-Bold, Barlow Condensed" font-weight="700">Cam Hytale ANE</text></g><text transform="translate(103.93 145.98)" font-size="140" fill="#d6bfff" font-family="BarlowCondensed-Bold, Barlow Condensed" font-weight="700">Cam Hytale ANE</text><circle cx="945.24" cy="306.03" r="53.67" fill="#755bb3" stroke="#423365" stroke-miterlimit="10" stroke-width="15"/><circle cx="945.24" cy="306.03" r="34.44" fill="#634e98"/><rect x="114.84" y="422.64" width="776.72" height="413.81" rx="57.89" fill="#403363"/><g opacity="0.6"><path d="M928.36,865" transform="translate(-36.8 -97.47)" fill="none" stroke="#d4b4ff" stroke-miterlimit="10" stroke-width="4"/><path d="M151.64,865" transform="translate(-36.8 -97.47)" fill="none" stroke="#d4b4ff" stroke-miterlimit="10" stroke-width="4"/><line x1="114.84" y1="698.52" x2="891.56" y2="698.52" fill="none" stroke="#d4b4ff" stroke-miterlimit="10" stroke-width="4"/><path d="M928.36,727" transform="translate(-36.8 -97.47)" fill="none" stroke="#d4b4ff" stroke-miterlimit="10" stroke-width="4"/><path d="M151.64,727" transform="translate(-36.8 -97.47)" fill="none" stroke="#d4b4ff" stroke-miterlimit="10" stroke-width="4"/><line x1="114.84" y1="560.58" x2="891.56" y2="560.58" fill="none" stroke="#d4b4ff" stroke-miterlimit="10" stroke-width="4"/><path d="M928.36,589.08" transform="translate(-36.8 -97.47)" fill="none" stroke="#d4b4ff" stroke-miterlimit="10" stroke-width="4"/><path d="M151.64,589.08" transform="translate(-36.8 -97.47)" fill="none" stroke="#d4b4ff" stroke-miterlimit="10" stroke-width="4"/><path d="M798.91,933.92" transform="translate(-36.8 -97.47)" fill="none" stroke="#d4b4ff" stroke-miterlimit="10" stroke-width="4"/><path d="M798.91,520.11" transform="translate(-36.8 -97.47)" fill="none" stroke="#d4b4ff" stroke-miterlimit="10" stroke-width="4"/><line x1="632.66" y1="422.64" x2="632.66" y2="836.46" fill="none" stroke="#d4b4ff" stroke-miterlimit="10" stroke-width="4"/><path d="M540,933.92" transform="translate(-36.8 -97.47)" fill="none" stroke="#d4b4ff" stroke-miterlimit="10" stroke-width="4"/><path d="M540,520.11" transform="translate(-36.8 -97.47)" fill="none" stroke="#d4b4ff" stroke-miterlimit="10" stroke-width="4"/><line x1="373.75" y1="422.64" x2="373.75" y2="836.46" fill="none" stroke="#d4b4ff" stroke-miterlimit="10" stroke-width="4"/><path d="M281.09,933.92" transform="translate(-36.8 -97.47)" fill="none" stroke="#d4b4ff" stroke-miterlimit="10" stroke-width="4"/><path d="M281.09,520.11" transform="translate(-36.8 -97.47)" fill="none" stroke="#d4b4ff" stroke-miterlimit="10" stroke-width="4"/></g><path d="M209.53,520.11H151.64V578A57.89,57.89,0,0,1,209.53,520.11Z" transform="translate(-36.8 -97.47)" fill="#1e1236"/><path d="M151.64,876v57.89h57.89A57.89,57.89,0,0,1,151.64,876Z" transform="translate(-36.8 -97.47)" fill="#1e1236"/><path d="M870.47,933.92h57.89V876A57.89,57.89,0,0,1,870.47,933.92Z" transform="translate(-36.8 -97.47)" fill="#1e1236"/><path d="M870.47,520.11A57.89,57.89,0,0,1,928.36,578V520.11Z" transform="translate(-36.8 -97.47)" fill="#1e1236"/><polyline points="108.1 509.86 367.01 702.22 552.17 724.91 755.37 537.56 895.93 624.98" fill="none" stroke="#c98615" stroke-miterlimit="10" stroke-width="15"/><circle cx="61.17" cy="306.03" r="53.67" fill="#c98615" stroke="#5a3d0b" stroke-miterlimit="10" stroke-width="15"/><circle cx="61.17" cy="306.03" r="34.44" fill="#a16c11"/><circle cx="369.88" cy="700.56" r="24.36" fill="#ff841f" stroke="#8a3600" stroke-miterlimit="10" stroke-width="6"/><circle cx="555.82" cy="721.21" r="24.36" fill="#ff841f" stroke="#8a3600" stroke-miterlimit="10" stroke-width="6"/><circle cx="757.47" cy="538.08" r="24.36" fill="#ff841f" stroke="#8a3600" stroke-miterlimit="10" stroke-width="6"/><rect x="160.73" y="252.37" width="107.32" height="107.32" rx="30.19" fill="#755bb3" stroke="#423365" stroke-miterlimit="10" stroke-width="10"/><path d="M216.74,407.44l10-10.05,16.44,16.16,36.47-36.33,10.09,10-46.56,46.31Z" transform="translate(-36.8 -97.47)" fill="#1e1236"/><rect x="338.03" y="252.37" width="495.64" height="107.32" rx="30.19" fill="#755bb3" stroke="#423365" stroke-miterlimit="10" stroke-width="10"/><rect x="80.46" y="462.63" width="20.9" height="192.77" fill="#1e1236"/><rect x="93.94" y="480.53" width="20.9" height="192.77" fill="#1e1236"/><rect x="891.56" y="513.73" width="20.9" height="192.77" fill="#1e1236"/></g></g></svg>